<svg width="66" height="46" viewBox="0 0 66 46" fill="none" xmlns="http://www.w3.org/2000/svg"><path d="M55.44 19.981a9.88 9.88 0 00.66-3.552c0-5.442-4.434-9.858-9.9-9.858a9.88 9.88 0 00-5.497 1.664A16.5 16.5 0 0026.4 0C17.284 0 9.9 7.352 9.9 16.429c0 .277.01.554.02.831C4.147 19.283 0 24.766 0 31.214 0 39.377 6.652 46 14.85 46H52.8C60.09 46 66 40.117 66 32.857c0-6.356-4.538-11.664-10.56-12.876zM41.735 29.09l-10.87 10.82a1.66 1.66 0 01-2.33 0l-10.87-10.82c-1.041-1.037-.299-2.803 1.166-2.803h6.744v-11.5a1.65 1.65 0 011.65-1.643h4.95c.908 0 1.65.74 1.65 1.643v11.5h6.744c1.465 0 2.207 1.766 1.166 2.803z" fill="#fff"/></svg>