<svg width="65" height="65" viewBox="0 0 65 65" fill="none" xmlns="http://www.w3.org/2000/svg"><path d="M8.125 14.219a2.031 2.031 0 000 4.062h4.51l5.33 21.328c.452 1.808 2.071 3.047 3.934 3.047h25.33c1.834 0 3.392-1.218 3.873-2.986l5.265-19.358h-4.253l-4.887 18.282h-25.33l-5.328-21.328a4.03 4.03 0 00-3.935-3.047H8.125zm36.563 28.437c-3.342 0-6.094 2.753-6.094 6.094s2.752 6.094 6.093 6.094c3.342 0 6.094-2.753 6.094-6.094s-2.752-6.094-6.093-6.094zm-18.282 0c-3.341 0-6.093 2.753-6.093 6.094s2.752 6.094 6.093 6.094c3.342 0 6.094-2.753 6.094-6.094s-2.752-6.094-6.094-6.094zM32.5 14.22v10.156h-6.094l8.125 8.125 8.125-8.125h-6.093V14.219H32.5zm-6.094 32.5c1.146 0 2.032.885 2.032 2.031a2.002 2.002 0 01-2.032 2.031 2.001 2.001 0 01-2.031-2.031c0-1.146.886-2.031 2.031-2.031zm18.282 0a2 2 0 012.03 2.031 2.002 2.002 0 01-2.03 2.031 2.002 2.002 0 01-2.032-2.031c0-1.146.886-2.031 2.032-2.031z" fill="#fff"/></svg>