<svg width="83" height="83" viewBox="0 0 83 83" fill="none" xmlns="http://www.w3.org/2000/svg"><g clip-path="url(#clip0_76_154)"><path d="M70.263 15.535a69.149 69.149 0 00-16.894-5.153.259.259 0 00-.273.125 47.093 47.093 0 00-2.103 4.254 64.21 64.21 0 00-18.976 0 42.768 42.768 0 00-2.134-4.254.267.267 0 00-.273-.132 69.099 69.099 0 00-16.894 5.157.242.242 0 00-.11.093C1.843 31.447-1.107 46.878.342 62.115a.277.277 0 00.108.19 69.27 69.27 0 0020.725 10.307.27.27 0 00.29-.09 47.835 47.835 0 004.24-6.79.256.256 0 00-.141-.359 45.644 45.644 0 01-6.474-3.036.26.26 0 01-.028-.433c.436-.321.872-.657 1.287-.992a.26.26 0 01.27-.035c13.58 6.1 28.289 6.1 41.71 0a.26.26 0 01.274.031c.415.34.847.675 1.286.996a.26.26 0 01-.02.433 42.688 42.688 0 01-6.478 3.033.26.26 0 00-.142.363 54.248 54.248 0 004.237 6.785.266.266 0 00.29.097 69.04 69.04 0 0020.757-10.31.264.264 0 00.11-.186c1.73-17.617-2.897-32.923-12.273-46.487a.208.208 0 00-.107-.097zM27.736 52.837c-4.088 0-7.46-3.697-7.46-8.231 0-4.537 3.306-8.23 7.46-8.23 4.184 0 7.525 3.724 7.46 8.23 0 4.537-3.307 8.23-7.46 8.23zm27.58 0c-4.091 0-7.46-3.697-7.46-8.231 0-4.537 3.303-8.23 7.46-8.23 4.185 0 7.525 3.724 7.46 8.23 0 4.537-3.272 8.23-7.46 8.23z" fill="#fff"/></g><defs><clipPath id="clip0_76_154"><path fill="#fff" d="M0 0h83v83H0z"/></clipPath></defs></svg>