<svg width="71" height="71" viewBox="0 0 71 71" fill="none" xmlns="http://www.w3.org/2000/svg"><path fill-rule="evenodd" clip-rule="evenodd" d="M71 35.5C71 55.105 55.105 71 35.5 71S0 55.105 0 35.5 15.895 0 35.5 0 71 15.895 71 35.5zm-12.756-2.787c.574.82.899 1.787.934 2.787a5.18 5.18 0 01-2.875 4.721 9.946 9.946 0 010 1.563c0 7.952-9.265 14.413-20.697 14.413-11.43 0-20.696-6.462-20.696-14.414-.04-.52-.04-1.042 0-1.562a5.175 5.175 0 01-2.099-7.58 5.176 5.176 0 017.814-.904 25.347 25.347 0 0113.846-4.366l2.627-12.319a1.101 1.101 0 011.313-.852l8.697 1.74a3.55 3.55 0 11-.461 2.165l-7.597-1.598-2.307 11.076A25.275 25.275 0 0150.41 31.95a5.18 5.18 0 017.834.763zm-33.968 4.364a3.551 3.551 0 105.905 3.946 3.551 3.551 0 00-5.905-3.946zm11.26 14.469c3.15.13 6.25-.692 8.768-2.591a.992.992 0 10-1.385-1.42A11.644 11.644 0 0135.5 49.7a11.61 11.61 0 01-7.384-2.236.958.958 0 00-1.349 1.349 13.632 13.632 0 008.768 2.733zm6.156-9.402c.586.39 1.236.74 1.938.74a3.546 3.546 0 003.585-3.692 3.55 3.55 0 10-5.523 2.952z" fill="#fff"/></svg>