<svg width="83" height="83" viewBox="0 0 83 83" fill="none" xmlns="http://www.w3.org/2000/svg"><path d="M81.765 17.074a32.26 32.26 0 01-9.25 2.535 16.15 16.15 0 007.082-8.916 32.161 32.161 0 01-10.23 3.908A16.117 16.117 0 0041.915 29.3 45.75 45.75 0 018.708 12.464a16.103 16.103 0 00-2.179 8.1 16.116 16.116 0 007.166 13.41 16.07 16.07 0 01-7.297-2.015v.207a16.115 16.115 0 0012.924 15.798 16.227 16.227 0 01-7.277.276 16.119 16.119 0 0015.051 11.185 32.33 32.33 0 01-20.01 6.9c-1.285 0-2.57-.076-3.846-.226a45.565 45.565 0 0024.693 7.239c29.638 0 45.84-24.548 45.84-45.837a46.5 46.5 0 00-.048-2.082 32.751 32.751 0 008.034-8.335l.006-.01z" fill="#fff"/></svg>